<svg width="20" height="20" viewBox="0 0 20 20" fill="none" xmlns="http://www.w3.org/2000/svg">
<path d="M10 12.375C11.3117 12.375 12.375 11.3117 12.375 10C12.375 8.68832 11.3117 7.625 10 7.625C8.68832 7.625 7.625 8.68832 7.625 10C7.625 11.3117 8.68832 12.375 10 12.375Z" fill="#B5BBC6"/>
<path opacity="0.3" d="M10 12.375C11.3117 12.375 12.375 11.3117 12.375 10C12.375 8.68832 11.3117 7.625 10 7.625C8.68832 7.625 7.625 8.68832 7.625 10C7.625 11.3117 8.68832 12.375 10 12.375Z" fill="#B5BBC6"/>
<path opacity="0.3" d="M10 2.86667C6.05834 2.86667 1.66667 6.71667 1.66667 10C1.66667 13.1333 6.05834 17.1333 10 17.1333C14.1667 17.1333 18.3333 13.3083 18.3333 10C18.3333 6.81667 13.9417 2.86667 10 2.86667ZM10 13.625C9.28305 13.625 8.58219 13.4124 7.98606 13.0141C7.38993 12.6158 6.92531 12.0496 6.65094 11.3872C6.37657 10.7248 6.30479 9.99598 6.44466 9.2928C6.58453 8.58962 6.92978 7.94371 7.43674 7.43674C7.94371 6.92977 8.58962 6.58453 9.2928 6.44466C9.99598 6.30478 10.7248 6.37657 11.3872 6.65094C12.0496 6.92531 12.6158 7.38993 13.0141 7.98606C13.4124 8.58219 13.625 9.28304 13.625 10C13.625 10.9614 13.2431 11.8834 12.5633 12.5633C11.8834 13.2431 10.9614 13.625 10 13.625Z" fill="#B5BBC6"/>
</svg>
